<?xml version="1.0" encoding="UTF-8" standalone="no"?>
<svg xmlns:svg="http://www.w3.org/2000/svg" xmlns="http://www.w3.org/2000/svg" version="1.1" width="1024" height="1024" viewBox="0 0 1024 1024">
  <rect id="background" style="fill:#000192" x="0" y="0" width="1024" height="1024"/>
  <path id="Q" style="fill:#00bbfb" d="M 192,480 V 448 H 128 64 V 272 96 h 192 192 v 176 176 h -64 -64 v 32 32 H 256 192 Z M 320,304 v -80 h 16 16 v -32 -32 h -80 -80 v 112 112 h 64 64 z"/>
  <path id="B" style="fill:#007bfb" d="M 544,272 V 96 h 208 208 v 64 64 h -32 -32 v 48 48 h 32 32 v 64 64 H 752 544 Z m 288,80 v -32 h -80 -80 v 32 32 h 80 80 z m 0,-160 v -32 h -80 -80 v 32 32 h 80 80 z"/>
  <path id="6" style="fill:#fbbb00" d="M 64,752 V 576 h 208 208 v 32 32 H 336 192 v 48 48 h 144 144 v 96 96 H 272 64 Z m 288,80 v -32 h -80 -80 v 32 32 h 80 80 z"/>
  <path id="4" style="fill:#fb7b00" d="M 832,864 V 800 H 688 544 V 688 576 h 64 64 v 80 80 h 80 80 v -80 -80 h 64 64 v 176 176 h -64 -64 z"/>
</svg>
